<?xml version="1.0" standalone="no"?>
<!DOCTYPE svg PUBLIC "-//W3C//DTD SVG 20010904//EN"
 "http://www.w3.org/TR/2001/REC-SVG-20010904/DTD/svg10.dtd">
<svg version="1.0" xmlns="http://www.w3.org/2000/svg"
 width="198.000000pt" height="250.000000pt" viewBox="0 0 198.000000 250.000000"
 preserveAspectRatio="xMidYMid meet">
<metadata>
Created by potrace 1.16, written by Peter Selinger 2001-2019
</metadata>
<g transform="translate(0.000000,250.000000) scale(0.100000,-0.100000)"
fill="#000000" stroke="none">
<path d="M1645 2425 c-15 -24 -101 -30 -155 -11 -53 18 -146 21 -156 4 -4 -7
-3 -8 4 -4 8 5 10 1 6 -9 -4 -9 -13 -14 -21 -11 -8 3 -22 6 -31 7 -11 0 -12 2
-4 6 21 8 2 23 -30 23 -19 0 -41 -9 -54 -21 -21 -19 -36 -22 -161 -23 -90 -2
-151 2 -175 10 -62 21 -180 27 -219 11 -28 -11 -44 -12 -94 -2 -34 7 -117 12
-193 10 -120 -2 -135 -4 -156 -24 -18 -17 -32 -21 -71 -17 -28 2 -58 -2 -74
-10 -14 -8 -31 -14 -37 -14 -17 0 -12 -52 6 -71 23 -25 72 -19 87 11 7 14 13
21 14 15 1 -5 3 -14 4 -20 0 -5 9 -25 19 -43 10 -19 18 -61 20 -95 2 -34 6
-82 11 -106 8 -42 7 -44 -13 -39 -52 14 -50 -58 7 -207 l41 -110 0 -453 c0
-387 -2 -453 -15 -458 -10 -4 -12 -15 -9 -34 5 -23 2 -28 -20 -34 -21 -5 -24
-11 -21 -37 2 -17 11 -39 19 -48 11 -12 15 -35 14 -72 -1 -40 -2 -45 -5 -19
-6 45 -12 51 -61 56 -38 3 -40 2 -38 -21 1 -13 7 -30 13 -37 6 -7 13 -22 15
-33 2 -13 11 -20 25 -19 13 0 24 -7 26 -18 4 -14 -1 -18 -23 -18 -69 0 -59
-76 13 -94 33 -9 52 -26 27 -26 -5 0 -10 -7 -10 -15 0 -16 -29 -34 -45 -28 -7
2 -11 -12 -11 -32 0 -19 5 -35 11 -35 5 0 2 -7 -8 -15 -18 -13 -18 -19 -7 -92
1 -11 62 0 66 12 5 13 10 13 35 -1 16 -8 34 -12 39 -9 13 8 52 -14 45 -26 -4
-5 5 -9 20 -9 23 0 24 -2 15 -21 -9 -15 -8 -24 1 -35 17 -21 35 -17 73 16 22
20 36 26 38 18 3 -9 133 -12 567 -12 l563 -1 19 25 18 25 1 -23 c0 -32 26 -38
58 -15 15 11 35 22 45 26 9 3 17 11 17 17 0 5 8 10 18 10 22 0 56 34 57 58 4
47 6 51 20 46 11 -5 13 -2 9 10 -7 18 8 21 34 7 9 -5 38 -12 64 -16 47 -7 47
-7 44 20 -3 32 -29 55 -61 55 -12 0 -36 15 -53 33 -29 30 -31 35 -17 47 18 15
20 71 3 89 -11 10 -10 14 5 22 22 13 24 69 2 69 -8 0 -15 7 -15 16 0 13 3 14
15 4 23 -19 74 16 96 68 10 24 13 40 7 36 -7 -5 -9 -2 -5 9 9 24 -8 29 -52 16
-28 -8 -43 -20 -50 -38 -10 -26 -10 -26 -8 6 1 19 -6 40 -18 53 -19 21 -20 40
-23 502 l-3 480 26 -6 c17 -4 26 -2 27 6 5 43 6 145 1 158 -9 24 -12 94 -5
105 12 16 8 45 -7 54 -11 7 -12 19 -1 73 12 62 14 65 40 62 22 -3 30 3 43 32
10 19 17 44 17 56 0 18 -4 20 -41 15 l-41 -5 21 22 c13 14 19 29 15 39 -4 12
-1 17 10 17 11 0 16 9 16 29 0 42 -42 73 -95 70 -22 -2 -45 0 -50 3 -6 3 -35
9 -65 13 -45 5 -57 3 -65 -10z m111 -30 c9 -7 9 -14 2 -23 -19 -23 2 -26 25
-4 24 22 87 31 87 12 0 -5 -4 -10 -9 -10 -5 0 -12 -9 -16 -19 -5 -16 -11 -18
-36 -11 -26 8 -31 6 -41 -16 -16 -34 0 -44 22 -14 31 41 35 13 5 -32 -26 -39
-29 -41 -34 -21 -9 32 -51 60 -97 64 -33 3 -40 1 -36 -10 4 -12 1 -12 -17 1
-13 9 -30 14 -37 11 -8 -3 -14 -1 -14 4 0 13 -182 10 -207 -4 -17 -10 -22 -10
-26 0 -3 9 -7 9 -20 -2 -10 -7 -17 -10 -17 -6 0 9 25 29 55 47 l20 11 -20 -23
-20 -23 28 18 c24 15 41 17 119 11 50 -4 96 -8 102 -9 6 -1 10 6 10 15 -1 9 4
14 11 12 7 -3 16 -1 20 5 3 6 20 11 36 11 17 0 28 4 25 9 -8 12 66 8 80 -4z
m-1334 -32 c15 -15 28 -30 28 -33 0 -4 -33 -8 -72 -9 -67 -1 -75 -4 -101 -32
-15 -16 -25 -35 -22 -42 6 -11 -3 0 -47 56 -15 19 -19 20 -27 7 -7 -10 -4 -24
10 -46 10 -17 19 -38 19 -45 0 -8 -11 5 -25 28 -20 33 -23 46 -15 67 5 14 16
26 23 26 7 0 23 10 35 23 17 18 33 22 93 25 67 2 75 0 101 -25z m552 -83 c13
0 27 6 29 13 4 9 8 9 15 -2 7 -10 21 -12 46 -8 41 7 45 -3 16 -40 -26 -33 -16
-49 17 -27 25 16 26 16 18 -2 -19 -48 -18 -52 22 -58 21 -3 71 -7 111 -9 60
-2 71 -5 66 -17 -8 -18 -43 -109 -50 -129 -3 -11 -12 -7 -33 13 -18 18 -31 24
-35 17 -4 -6 -1 -11 7 -11 18 0 52 -50 40 -59 -4 -3 -14 -18 -20 -33 -12 -27
-12 -28 17 -28 24 0 34 -8 56 -45 15 -26 24 -54 21 -65 -6 -25 3 -25 52 0 21
12 61 25 87 30 27 5 74 16 104 24 60 18 120 21 120 7 0 -5 -29 -10 -64 -13
-40 -2 -74 -11 -92 -23 -18 -12 -47 -20 -74 -20 -29 0 -57 -7 -75 -20 -17 -11
-41 -22 -55 -25 -31 -6 -37 -37 -15 -82 15 -32 15 -32 -2 -13 -10 11 -30 21
-44 22 -14 2 -39 9 -55 18 -41 21 -45 19 -27 -15 8 -17 19 -27 25 -24 13 8
-12 -39 -26 -48 -19 -13 -29 -9 -17 6 9 11 9 15 -1 18 -10 4 -10 10 -1 29 9
21 8 30 -7 49 -23 31 -39 19 -69 -49 -11 -27 -27 -51 -36 -55 -30 -11 -14 -23
39 -29 91 -9 161 -57 202 -140 71 -139 16 -311 -120 -377 -55 -26 -145 -27
-203 -1 l-41 19 -82 -84 c-84 -87 -108 -98 -142 -67 -33 30 -22 58 60 149 42
48 76 92 75 98 -1 6 -9 31 -18 56 -45 121 33 292 152 331 l33 10 -15 35 c-8
19 -25 49 -39 67 -15 19 -26 38 -26 42 0 26 -36 45 -84 45 -37 0 -47 3 -36 10
12 8 9 10 -13 10 -15 0 -40 6 -55 14 -24 12 -36 11 -101 -5 -73 -19 -73 -19
-123 3 -54 23 -82 25 -168 13 -76 -11 -53 8 30 24 74 15 114 35 129 65 5 12
10 15 10 8 1 -7 -14 -26 -31 -43 -23 -21 -28 -29 -16 -29 9 0 32 -9 51 -20 30
-18 41 -19 83 -10 27 6 61 15 75 21 21 8 34 7 58 -5 17 -9 41 -14 54 -11 26 7
61 61 46 71 -6 3 -8 12 -5 20 6 15 -11 53 -28 65 -5 4 -6 11 -2 17 3 5 0 12
-8 15 -7 3 -17 18 -20 33 -4 15 -16 46 -27 68 -23 49 -23 53 -1 53 64 -1 81 4
76 18 -4 9 0 15 10 15 9 0 16 -6 16 -14 0 -11 11 -13 48 -9 26 3 59 6 74 7 27
1 29 16 1 16 -10 0 -14 6 -10 20 3 11 -5 32 -19 51 -29 40 -31 53 -5 39 11 -5
31 -10 45 -10z m754 -167 c-21 -3 -28 -10 -28 -27 0 -13 7 -30 16 -37 15 -12
16 -11 10 9 -5 13 -3 22 3 22 6 0 11 -13 11 -28 0 -20 11 -39 35 -61 38 -34
46 -54 18 -44 -15 5 -14 2 4 -18 12 -13 22 -33 21 -44 -1 -11 2 -31 6 -43 7
-21 6 -23 -12 -13 -17 9 -19 8 -15 -8 3 -11 11 -22 19 -25 8 -3 14 -13 13 -23
0 -15 -2 -15 -16 5 -18 25 -33 29 -33 7 0 -8 5 -15 10 -15 15 0 12 -36 -3 -49
-14 -11 -27 -6 -27 10 0 5 7 6 15 3 8 -4 15 -1 15 5 0 7 -7 14 -16 18 -12 4
-15 19 -14 62 1 31 1 76 0 101 -2 42 -3 43 -9 14 -4 -16 -6 -47 -5 -67 3 -39
-6 -47 -25 -23 -9 11 -8 15 5 20 13 5 14 9 4 21 -6 8 -8 20 -4 27 14 22 13 56
-2 69 -8 6 -14 16 -14 22 0 6 11 0 25 -13 14 -13 25 -18 25 -12 0 6 -15 23
-34 37 -27 20 -35 34 -38 65 -4 40 -4 40 32 39 30 -2 31 -3 8 -6z m-1432 -92
c-30 -31 -36 -44 -36 -79 0 -29 -5 -45 -15 -48 -14 -6 -13 -8 1 -19 11 -8 15
-19 10 -30 -5 -15 -4 -16 8 -6 8 7 17 31 19 54 3 40 4 40 5 -9 2 -38 -2 -53
-13 -58 -8 -3 -15 -17 -15 -31 0 -14 -9 -34 -20 -45 l-20 -20 -2 28 c-2 41 -3
46 -13 62 -5 8 -8 27 -7 42 2 17 -2 27 -9 26 -15 -4 -31 64 -18 77 11 11 26
-2 31 -28 3 -17 4 -17 23 -2 17 14 17 16 3 11 -31 -9 -20 20 17 48 29 22 35
34 35 64 0 26 3 33 9 23 5 -8 7 -21 4 -30 -3 -12 0 -11 11 3 9 11 17 27 17 35
1 9 4 5 6 -8 3 -17 -5 -33 -31 -60z m69 -1711 c10 -11 31 -20 46 -20 15 0 31
-5 34 -10 3 -6 17 -7 31 -4 27 7 54 -10 54 -33 0 -11 -6 -8 -20 8 -10 13 -19
19 -20 13 0 -16 31 -42 61 -49 21 -5 31 0 58 30 39 45 55 39 17 -6 -29 -34
-27 -52 2 -26 10 10 24 17 31 17 7 0 27 10 44 22 27 19 30 20 24 4 -6 -15 -4
-17 10 -11 10 5 46 9 80 10 50 2 66 -2 79 -16 14 -16 32 -19 112 -19 69 0 100
4 111 14 21 19 141 33 141 17 0 -7 -21 -11 -57 -11 -48 0 -61 -4 -85 -27 -22
-21 -31 -24 -40 -15 -14 14 -112 16 -137 2 -14 -7 -24 -4 -41 15 -21 22 -32
25 -91 25 -64 0 -70 -2 -111 -37 l-43 -38 -80 4 c-44 2 -75 5 -69 8 9 3 8 12
-3 33 -20 41 -72 42 -102 3 l-21 -28 12 28 c9 21 9 30 -1 40 -10 9 -11 9 -6
-4 4 -10 0 -16 -10 -16 -8 0 -15 7 -15 14 0 8 -4 11 -10 8 -16 -10 -12 -23 10
-30 17 -5 18 -9 8 -28 -6 -12 -24 -35 -40 -51 -27 -26 -30 -27 -47 -12 -14 12
-20 13 -30 3 -10 -9 -11 -9 -6 4 4 10 0 19 -11 23 -11 4 -15 2 -11 -8 4 -10 1
-13 -9 -9 -22 8 -17 18 19 34 23 10 31 20 30 35 -1 12 7 30 17 39 29 26 36 11
8 -15 l-23 -23 30 7 30 7 -32 -23 c-38 -26 -38 -28 -19 -54 15 -18 16 -18 46
12 28 28 30 33 19 57 -7 14 -17 24 -23 20 -6 -3 0 7 14 23 14 15 17 22 7 15
-24 -19 -29 -10 -14 22 14 32 19 33 42 7z m1237 -61 c16 -19 36 -42 45 -51 9
-10 12 -18 5 -18 -6 0 -20 14 -32 30 -29 40 -85 43 -102 5 -9 -19 -19 -25 -47
-27 -34 -1 -34 -1 9 -8 41 -6 38 -7 -35 -11 -72 -4 -82 -2 -107 19 -16 13 -26
27 -23 32 3 4 -3 14 -13 21 -15 13 -16 12 -3 -3 15 -20 2 -25 -17 -6 -8 8 -8
15 -1 25 9 10 17 8 43 -12 17 -13 44 -29 61 -35 29 -11 29 -11 10 9 -10 12
-25 21 -32 21 -8 0 -13 6 -10 13 5 17 42 15 42 -3 0 -8 5 -15 12 -15 7 0 18
-6 25 -12 18 -19 49 -16 75 9 29 27 31 48 1 22 l-21 -19 16 25 c24 37 63 32
99 -11z m-512 -111 c8 0 24 1 35 1 47 3 410 -11 415 -15 3 -3 -4 -12 -14 -20
-16 -11 -70 -14 -260 -15 -133 -1 -228 -5 -211 -9 21 -5 6 -8 -50 -7 -72 0
-75 1 -30 7 28 4 -61 8 -202 8 -219 1 -255 3 -278 18 -14 9 -24 18 -22 20 2 2
128 6 281 8 153 3 281 7 284 11 3 3 13 3 21 -1 9 -4 23 -7 31 -6z"/>
<path d="M997 1495 c-137 -48 -170 -235 -61 -337 36 -33 74 -48 124 -48 139 0
232 154 171 285 -22 48 -54 79 -103 100 -45 18 -81 19 -131 0z m87 -61 c11 -4
16 -19 16 -44 0 -38 1 -39 38 -42 35 -3 37 -5 40 -40 l3 -38 -40 0 c-40 0 -40
0 -43 -42 -3 -39 -6 -43 -32 -46 -34 -4 -46 10 -46 55 0 30 -3 32 -37 35 -36
3 -38 5 -38 38 0 33 2 35 38 38 34 3 37 5 37 36 0 47 24 66 64 50z"/>
</g>
</svg>
