<?xml version="1.0" standalone="no"?>
<!DOCTYPE svg PUBLIC "-//W3C//DTD SVG 20010904//EN"
 "http://www.w3.org/TR/2001/REC-SVG-20010904/DTD/svg10.dtd">
<svg version="1.0" xmlns="http://www.w3.org/2000/svg"
 width="128.000000pt" height="128.000000pt" viewBox="0 0 128.000000 128.000000"
 preserveAspectRatio="xMidYMid meet">
<metadata>
Created by potrace 1.16, written by Peter Selinger 2001-2019
</metadata>
<g transform="translate(0.000000,128.000000) scale(0.100000,-0.100000)"
fill="#000000" stroke="none">
<path d="M490 1143 c0 -5 22 -16 49 -26 61 -21 126 -84 140 -134 27 -95 4
-146 -129 -287 -119 -127 -154 -191 -154 -280 1 -153 122 -249 357 -281 53 -7
64 7 18 23 -41 14 -109 78 -132 125 -60 116 -21 258 124 459 113 158 111 264
-9 334 -67 40 -264 89 -264 67z"/>
<path d="M540 978 c-37 -50 -54 -110 -46 -160 7 -42 26 -88 36 -88 4 0 24 20
44 45 l37 44 -33 29 c-40 36 -44 86 -10 131 24 34 27 41 12 41 -5 0 -23 -19
-40 -42z"/>
<path d="M748 673 c-8 -10 -27 -37 -41 -60 l-26 -41 43 -44 c65 -64 83 -158
51 -263 -8 -27 -13 -51 -11 -52 2 -2 20 15 41 38 86 95 103 208 47 321 -17 35
-44 76 -60 91 -27 26 -29 26 -44 10z"/>
</g>
</svg>
