<?xml version="1.0" standalone="no"?>
<!DOCTYPE svg PUBLIC "-//W3C//DTD SVG 20010904//EN"
 "http://www.w3.org/TR/2001/REC-SVG-20010904/DTD/svg10.dtd">
<svg version="1.0" xmlns="http://www.w3.org/2000/svg"
 width="2821.000000pt" height="2474.000000pt" viewBox="0 0 2821.000000 2474.000000"
 preserveAspectRatio="xMidYMid meet">
<metadata>
Created by potrace 1.16, written by Peter Selinger 2001-2019
</metadata>
<g transform="translate(0.000000,2474.000000) scale(0.100000,-0.100000)"
fill="#000000" stroke="none">
<path d="M13785 24730 c-430 -39 -816 -294 -1007 -667 -45 -85 -86 -194 -108
-280 -10 -39 -13 -42 -53 -48 -273 -43 -1499 -329 -1888 -441 -872 -249 -1720
-644 -2489 -1157 -337 -225 -1057 -751 -1204 -879 l-39 -34 769 -364 c423
-200 880 -416 1015 -480 l246 -117 149 99 c850 565 1841 997 2829 1233 154 37
503 108 588 120 l47 7 0 -1128 c0 -1226 0 -1217 56 -1396 107 -338 376 -628
715 -768 195 -81 378 -105 752 -97 276 5 358 16 515 68 364 119 672 425 791
784 58 176 55 108 58 1373 l4 1163 37 -7 c1212 -208 2387 -675 3411 -1356 90
-60 169 -107 175 -104 42 17 2003 949 2008 954 19 19 -798 625 -1252 929 -769
513 -1617 908 -2489 1157 -264 76 -1395 347 -1651 396 -118 23 -225 43 -238
46 -13 2 -24 10 -26 17 -68 228 -98 298 -181 422 -185 278 -495 480 -830 540
-107 20 -554 29 -710 15z m429 -926 c197 -51 373 -234 421 -436 23 -96 22
-3575 0 -3663 -27 -106 -81 -201 -159 -280 -302 -305 -793 -189 -944 225 l-27
75 -3 1780 c-3 1982 -7 1852 65 1998 71 141 226 266 376 303 73 17 198 17 271
-2z"/>
<path d="M3250 21386 c0 -3 879 -954 1954 -2113 l1955 -2108 0 -3812 1 -3813
64 -108 c375 -632 961 -1296 1616 -1833 117 -95 374 -289 384 -289 3 0 6 2530
6 5623 l-1 5622 -2980 1415 c-1639 778 -2984 1417 -2989 1418 -6 2 -10 1 -10
-2z"/>
<path d="M21960 19976 l-2975 -1414 -3 -5626 c-1 -3094 0 -5626 3 -5626 9 0
281 208 400 305 200 163 370 319 575 524 417 418 749 837 1018 1285 l72 119 0
3811 0 3812 1936 2089 c1065 1150 1945 2100 1957 2113 15 16 17 22 6 22 -8 -1
-1353 -637 -2989 -1414z"/>
<path d="M4472 18143 c-358 -634 -665 -1373 -856 -2063 -49 -178 -275 -1104
-332 -1365 -141 -638 -224 -1360 -224 -1957 l0 -148 -955 0 c-1038 0 -1012 1
-1184 -56 -325 -109 -609 -351 -765 -653 -103 -200 -148 -388 -148 -616 1
-175 18 -284 68 -435 162 -484 597 -837 1109 -899 60 -7 450 -11 1177 -11
1026 0 1087 -1 1092 -17 3 -10 33 -130 66 -268 267 -1103 671 -2041 1277
-2968 99 -152 527 -756 682 -962 110 -148 292 -374 410 -510 143 -166 450
-494 541 -576 l75 -69 3 -1348 3 -1349 107 -70 c261 -173 533 -285 791 -328
151 -26 363 -17 486 19 183 54 351 163 475 307 l60 70 0 609 c0 336 3 610 6
610 3 0 56 -31 117 -68 360 -220 745 -419 1140 -588 82 -35 153 -64 158 -64 5
0 9 448 9 1108 l0 1108 -97 54 c-316 174 -703 425 -1021 665 -383 288 -636
508 -982 855 -326 326 -572 610 -845 975 -1021 1363 -1642 2976 -1799 4675
-51 549 -51 1189 0 1735 93 1009 345 1974 756 2903 49 111 88 206 86 211 -3 8
-1418 1591 -1423 1591 -1 0 -29 -48 -63 -107z m-1207 -6566 c78 -36 137 -95
172 -171 23 -51 28 -74 27 -141 0 -66 -5 -90 -27 -136 -32 -66 -108 -141 -175
-172 l-47 -22 -1100 0 -1100 0 -50 25 c-279 137 -256 529 38 631 49 18 113 18
1127 16 l1075 -2 60 -28z"/>
<path d="M22922 17415 c-392 -437 -712 -799 -712 -804 0 -5 23 -60 51 -122
465 -1040 729 -2123 799 -3284 23 -373 12 -982 -25 -1385 -228 -2485 -1444
-4760 -3380 -6325 -355 -287 -874 -639 -1232 -835 l-43 -24 0 -1117 0 -1118
83 35 c373 159 804 383 1164 604 80 49 147 90 149 90 2 0 4 -283 4 -628 l0
-628 58 -68 c119 -142 317 -269 497 -318 68 -19 107 -22 265 -22 175 -1 191 1
310 31 150 38 304 96 443 167 100 52 281 161 323 195 l21 17 6 1372 6 1373
202 211 c298 313 518 571 745 873 162 216 592 820 697 982 605 924 1010 1866
1277 2968 33 138 63 258 66 268 5 16 67 17 1122 17 749 0 1147 4 1207 11 585
71 1056 516 1160 1094 25 136 23 364 -4 494 -100 481 -435 862 -892 1015 -173
57 -143 56 -1214 56 l-985 0 0 138 c0 548 -71 1224 -191 1812 -39 192 -256
1106 -325 1370 -161 617 -385 1212 -674 1790 -97 196 -241 464 -259 483 -4 4
-327 -351 -719 -788z m4274 -5820 c301 -89 332 -496 49 -635 l-50 -25 -1100 0
-1100 0 -47 22 c-67 31 -143 106 -175 172 -22 46 -27 70 -27 136 -1 67 3 89
27 140 45 97 115 157 222 191 31 10 272 13 1096 13 903 1 1063 -1 1105 -14z"/>
<path d="M12190 13718 c-1 -26 1915 -11188 1920 -11188 5 0 1921 11162 1920
11188 0 9 -391 12 -1920 12 -1529 0 -1920 -3 -1920 -12z"/>
<path d="M11110 2243 c0 -1235 2 -2244 4 -2242 2 2 19 42 36 89 142 372 519
1002 967 1615 l73 99 0 1343 0 1343 -540 0 -540 0 0 -2247z"/>
<path d="M16020 3148 l0 -1343 106 -145 c416 -572 798 -1214 934 -1570 17 -47
34 -87 36 -89 2 -2 4 1007 4 2242 l0 2247 -540 0 -540 0 0 -1342z"/>
</g>
</svg>
